<svg width="24" height="27" viewBox="0 0 24 27" fill="none" xmlns="http://www.w3.org/2000/svg">
<path d="M21.8729 1.14573C20.9293 0.477299 19.7561 0.207087 18.6112 0.39452C17.4664 0.581953 16.4436 1.21168 15.7679 2.14523L4.72786 17.3974C4.47664 17.7268 4.29458 18.1026 4.19239 18.5027C4.09021 18.9028 4.06997 19.319 4.13287 19.727C4.19576 20.1349 4.34053 20.5262 4.55863 20.878C4.77673 21.2297 5.06375 21.5346 5.40279 21.7749C5.74183 22.0151 6.12603 22.1858 6.53275 22.2768C6.93947 22.3678 7.36049 22.3774 7.771 22.3049C8.18151 22.2324 8.57321 22.0794 8.92302 21.8548C9.27284 21.6302 9.57369 21.3386 9.80786 20.9971L17.6029 10.229L16.5866 9.50786L8.79286 20.2784C8.50308 20.6778 8.06513 20.9473 7.57498 21.0277C7.08482 21.1082 6.58242 20.9931 6.17786 20.7077C5.77394 20.4205 5.50167 19.9864 5.42082 19.5008C5.33997 19.0152 5.45714 18.5176 5.74661 18.1174L16.7841 2.86516H16.7866L16.7841 2.86269C17.2681 2.19703 17.999 1.74829 18.8166 1.61475C19.6343 1.48121 20.4721 1.67374 21.1466 2.15018C21.8193 2.62918 22.2727 3.35243 22.4077 4.16158C22.5426 4.97072 22.3481 5.79981 21.8666 6.46731V6.46484L9.76661 23.1841C9.09018 24.1167 8.06773 24.7459 6.92335 24.9337C5.77898 25.1215 4.60603 24.8527 3.66161 24.1861C2.71938 23.5159 2.0841 22.5034 1.89501 21.3704C1.70592 20.2375 1.97845 19.0766 2.65286 18.1421L11.4466 5.9923L10.4304 5.27237L1.63661 17.4222C1.20645 18.0164 0.898842 18.6886 0.731367 19.4005C0.563892 20.1124 0.539832 20.85 0.660563 21.5711C0.781295 22.2922 1.04445 22.9827 1.43499 23.6031C1.82552 24.2235 2.33579 24.7617 2.93661 25.1868C3.53668 25.6129 4.21574 25.9178 4.93496 26.084C5.65417 26.2502 6.39944 26.2745 7.12815 26.1555C7.85686 26.0365 8.55472 25.7765 9.18182 25.3904C9.80892 25.0043 10.353 24.4996 10.7829 23.9053L22.8829 7.18601C23.5577 6.25204 23.8301 5.09111 23.6402 3.95844C23.4504 2.82577 22.8138 1.81406 21.8704 1.14573H21.8729Z" fill="#828282"/>
</svg>
