<svg width="26" height="26" viewBox="0 0 26 26" fill="none" xmlns="http://www.w3.org/2000/svg">
<path d="M22.4328 15.9285C22.308 15.0614 21.6385 14.3854 20.7766 14.1839C17.4265 13.3987 16.5867 11.4695 16.445 9.32971C15.8509 9.21921 14.794 9.09961 13 9.09961C11.206 9.09961 10.1491 9.21921 9.55498 9.32971C9.41328 11.4695 8.57348 13.3987 5.22338 14.1839C4.36148 14.3867 3.69198 15.0614 3.56718 15.9285L2.92108 20.4031C2.69358 21.9787 3.85058 23.3996 5.45998 23.3996H20.54C22.1481 23.3996 23.3064 21.9787 23.0789 20.4031L22.4328 15.9285ZM13 20.1392C11.1865 20.1392 9.71618 18.6832 9.71618 16.8892C9.71618 15.0952 11.1865 13.6392 13 13.6392C14.8135 13.6392 16.2838 15.0952 16.2838 16.8892C16.2838 18.6832 14.8122 20.1392 13 20.1392ZM25.935 7.79961C25.9038 5.84961 20.9404 2.60091 13 2.59961C5.05828 2.60091 0.0948762 5.84961 0.0649762 7.79961C0.0350762 9.74961 0.0922763 12.2872 3.36048 11.8647C7.18378 11.3694 6.94848 10.0343 6.94848 8.12591C6.94848 6.79471 10.0581 6.47361 13 6.47361C15.9419 6.47361 19.0502 6.79471 19.0515 8.12591C19.0515 10.0343 18.8162 11.3694 22.6395 11.8647C25.9064 12.2872 25.9649 9.74961 25.935 7.79961Z" fill="#828282"/>
</svg>
