<svg width="87" height="69" viewBox="0 0 87 69" fill="none" xmlns="http://www.w3.org/2000/svg">
<path d="M84.825 47.4375H82.65V32.8693C82.65 31.1578 81.9567 29.5137 80.7333 28.3008L67.1531 14.8377C65.9297 13.6248 64.2712 12.9375 62.5448 12.9375H56.55V6.46875C56.55 2.89746 53.6273 0 50.025 0H15.225C11.6227 0 8.7 2.89746 8.7 6.46875V12.9375H1.0875C0.489375 12.9375 0 13.4227 0 14.0156V16.1719C0 16.7648 0.489375 17.25 1.0875 17.25H38.0625C38.6606 17.25 39.15 17.7352 39.15 18.3281V20.4844C39.15 21.0773 38.6606 21.5625 38.0625 21.5625H5.4375C4.83938 21.5625 4.35 22.0477 4.35 22.6406V24.7969C4.35 25.3898 4.83938 25.875 5.4375 25.875H33.7125C34.3106 25.875 34.8 26.3602 34.8 26.9531V29.1094C34.8 29.7023 34.3106 30.1875 33.7125 30.1875H1.0875C0.489375 30.1875 0 30.6727 0 31.2656V33.4219C0 34.0148 0.489375 34.5 1.0875 34.5H29.3625C29.9606 34.5 30.45 34.9852 30.45 35.5781V37.7344C30.45 38.3273 29.9606 38.8125 29.3625 38.8125H8.7V56.0625C8.7 63.2051 14.5453 69 21.75 69C28.9547 69 34.8 63.2051 34.8 56.0625H52.2C52.2 63.2051 58.0453 69 65.25 69C72.4547 69 78.3 63.2051 78.3 56.0625H84.825C86.0212 56.0625 87 55.0922 87 53.9062V49.5938C87 48.4078 86.0212 47.4375 84.825 47.4375ZM21.75 62.5312C18.1477 62.5312 15.225 59.6338 15.225 56.0625C15.225 52.4912 18.1477 49.5938 21.75 49.5938C25.3523 49.5938 28.275 52.4912 28.275 56.0625C28.275 59.6338 25.3523 62.5312 21.75 62.5312ZM65.25 62.5312C61.6477 62.5312 58.725 59.6338 58.725 56.0625C58.725 52.4912 61.6477 49.5938 65.25 49.5938C68.8523 49.5938 71.775 52.4912 71.775 56.0625C71.775 59.6338 68.8523 62.5312 65.25 62.5312ZM76.125 34.5H56.55V19.4062H62.5448L76.125 32.8693V34.5Z" fill="#E9456A"/>
</svg>
