<svg width="75" height="60" viewBox="0 0 75 60" fill="none" xmlns="http://www.w3.org/2000/svg">
<path d="M67.5 0H7.5C3.36375 0 0 3.36375 0 7.5V52.5C0 56.6362 3.36375 60 7.5 60H67.5C71.6363 60 75 56.6362 75 52.5V7.5C75 3.36375 71.6363 0 67.5 0ZM11.25 16.875C11.25 16.3777 11.4475 15.9008 11.7992 15.5492C12.1508 15.1975 12.6277 15 13.125 15H24.375C24.8723 15 25.3492 15.1975 25.7008 15.5492C26.0525 15.9008 26.25 16.3777 26.25 16.875V24.375C26.25 24.8723 26.0525 25.3492 25.7008 25.7008C25.3492 26.0525 24.8723 26.25 24.375 26.25H13.125C12.6277 26.25 12.1508 26.0525 11.7992 25.7008C11.4475 25.3492 11.25 24.8723 11.25 24.375V16.875ZM33.75 45H11.25V37.5H33.75V45ZM63.75 45H41.25V37.5H63.75V45Z" fill="#E9456A"/>
</svg>
