<svg width="70" height="70" viewBox="0 0 70 70" fill="none" xmlns="http://www.w3.org/2000/svg">
<path fill-rule="evenodd" clip-rule="evenodd" d="M67.2003 38.6967L30.9162 2.343C27.6941 -0.879154 22.3514 -0.765943 18.9856 2.60861L18.598 2.99614L18.45 2.84809C14.7271 -0.879154 8.53535 -0.726755 4.62087 3.19208L3.51053 4.30677C-0.403947 8.22125 -0.551992 14.4217 3.1709 18.149L3.3233 18.3014L2.60485 19.0242C-0.760996 22.39 -0.882915 27.7414 2.34359 30.9723L38.6276 67.326C41.8498 70.5525 47.2012 70.4349 50.5583 67.0647L66.9434 50.6492C70.3136 47.2746 70.4268 41.9276 67.2003 38.6967ZM14.8316 22.4727C11.0608 22.4727 8.00848 19.2767 7.99977 15.3274C7.99977 11.3824 11.0608 8.18641 14.8316 8.18641C18.6024 8.18641 21.6417 11.3868 21.6547 15.3274C21.6417 19.2767 18.5937 22.4727 14.8316 22.4727ZM54.0243 56.9106L49.3043 52.1862C46.4653 54.2022 42.9079 54.838 39.7946 53.7625C39.4396 53.6437 39.1125 53.4539 38.8333 53.2046C38.554 52.9553 38.3285 52.6518 38.1704 52.3125C38.0047 51.9634 37.9115 51.5842 37.8965 51.198C37.8815 50.8118 37.9451 50.4266 38.0834 50.0657C38.352 49.344 38.8902 48.7547 39.5845 48.4217C40.2789 48.0888 41.0753 48.0381 41.8062 48.2804C42.8426 48.6375 44.0269 48.4851 45.1198 47.9844L39.6639 42.5067C35.5143 45.4763 30.0018 45.3892 26.636 42.0321C23.2484 38.6488 23.1744 33.1189 26.1832 28.978L21.5589 24.3494L24.2978 21.6106L28.9525 26.2479C31.8176 24.2406 35.3794 23.6049 38.497 24.6847C38.8563 24.8097 39.1868 25.0059 39.4686 25.2616C39.7504 25.5172 39.9777 25.827 40.137 26.1725C40.2964 26.518 40.3844 26.8921 40.3959 27.2724C40.4074 27.6526 40.3421 28.0314 40.2039 28.3858C39.9281 29.104 39.3874 29.689 38.6932 30.0203C37.9989 30.3516 37.204 30.404 36.4723 30.1667C35.436 29.8053 34.2603 29.9534 33.1717 30.441L38.6668 35.9143C42.7903 33.0188 48.2375 33.1363 51.5772 36.4717C54.9169 39.8114 55.0475 45.2368 52.1563 49.3385L56.8589 54.0237L54.0243 56.9106Z" fill="#E9456A"/>
<path fill-rule="evenodd" clip-rule="evenodd" d="M30.9032 37.948C32.0701 39.1106 33.9424 39.2325 35.6101 38.4139L30.4373 33.2192C29.6143 34.8956 29.7319 36.7767 30.9032 37.948Z" fill="#E9456A"/>
<path fill-rule="evenodd" clip-rule="evenodd" d="M47.4493 40.6864C46.3259 39.5586 44.5407 39.415 42.9166 40.1465L47.9936 45.2061C48.7208 43.5907 48.5727 41.8054 47.4493 40.6864Z" fill="#E9456A"/>
</svg>
