<svg width="53" height="70" viewBox="0 0 53 70" fill="none" xmlns="http://www.w3.org/2000/svg">
<path fill-rule="evenodd" clip-rule="evenodd" d="M5.82899e-07 67.491V8.70852C5.82899e-07 6.39888 0.917502 4.18383 2.55067 2.55067C4.18383 0.917502 6.39888 0 8.70852 0L43.5426 0C45.8522 0 48.0673 0.917502 49.7005 2.55067C51.3336 4.18383 52.2511 6.39888 52.2511 8.70852V67.491C52.2514 67.8691 52.1532 68.2407 51.9662 68.5693C51.7793 68.8979 51.51 69.1722 51.1848 69.3651C50.8596 69.5579 50.4899 69.6628 50.1118 69.6694C49.7338 69.676 49.3606 69.584 49.029 69.4025L26.1256 56.9058L3.22215 69.4025C2.89049 69.584 2.51728 69.676 2.13927 69.6694C1.76126 69.6628 1.39148 69.5579 1.06632 69.3651C0.741167 69.1722 0.471848 68.8979 0.284876 68.5693C0.0979035 68.2407 -0.000276033 67.8691 5.82899e-07 67.491ZM26.8222 17.8525C26.7586 17.7219 26.6595 17.6118 26.5363 17.5348C26.4132 17.4579 26.2708 17.417 26.1256 17.417C25.9803 17.417 25.838 17.4579 25.7148 17.5348C25.5916 17.6118 25.4925 17.7219 25.4289 17.8525L22.6683 23.4477C22.613 23.5609 22.531 23.6589 22.4293 23.7332C22.3277 23.8076 22.2094 23.856 22.0848 23.8744L15.9018 24.7714C15.7594 24.793 15.6259 24.8538 15.5162 24.947C15.4065 25.0402 15.3249 25.1622 15.2806 25.2992C15.2363 25.4361 15.231 25.5828 15.2654 25.7226C15.2997 25.8624 15.3723 25.9899 15.475 26.0907L19.9425 30.4493C20.1254 30.6279 20.2081 30.8848 20.1646 31.1373L19.1152 37.2942C19.0915 37.4364 19.108 37.5824 19.1627 37.7157C19.2174 37.849 19.3082 37.9645 19.4249 38.0491C19.5416 38.1336 19.6795 38.184 19.8233 38.1945C19.967 38.205 20.1109 38.1752 20.2386 38.1085L25.7685 35.1998C25.8794 35.1418 26.0026 35.1116 26.1277 35.1116C26.2528 35.1116 26.3761 35.1418 26.487 35.1998L32.0169 38.1085C32.1445 38.174 32.2878 38.2029 32.4308 38.1918C32.5738 38.1807 32.711 38.1302 32.827 38.0458C32.943 37.9613 33.0333 37.8464 33.0878 37.7137C33.1424 37.581 33.159 37.4358 33.1359 37.2942L32.0822 31.133C32.06 31.0092 32.0682 30.8819 32.1061 30.7621C32.144 30.6422 32.2105 30.5334 32.2999 30.445L36.7761 26.0864C36.8788 25.9855 36.9514 25.858 36.9858 25.7182C37.0201 25.5784 37.0148 25.4318 36.9705 25.2948C36.9262 25.1578 36.8446 25.0359 36.7349 24.9427C36.6252 24.8494 36.4917 24.7886 36.3494 24.767L30.1663 23.8701C30.0417 23.8517 29.9234 23.8032 29.8218 23.7289C29.7201 23.6545 29.6381 23.5565 29.5828 23.4433L26.8222 17.8525Z" fill="#E9456A"/>
</svg>
