<svg width="2008" height="408" viewBox="0 0 2008 408" fill="none" xmlns="http://www.w3.org/2000/svg">
<path d="M1563.21 267.21C1563.21 285.553 1560.38 303.19 1554.73 320.123C1549.07 337.054 1540.77 352.047 1529.81 365.099C1519.22 377.797 1506.13 388.028 1490.58 395.787C1475.04 403.548 1457.37 407.429 1437.57 407.429C1419.9 407.429 1403.11 403.901 1387.21 396.846C1371.66 389.438 1359.65 379.032 1351.16 365.628H1350.1V400.02H1270.05V0H1357V164.558H1358.05C1365.47 155.74 1375.9 147.627 1389.33 140.219C1402.76 132.811 1419.2 129.108 1438.63 129.108C1457.72 129.108 1474.86 132.811 1490.06 140.219C1505.61 147.627 1518.68 157.68 1529.28 170.38C1540.24 183.078 1548.55 197.894 1554.2 214.825C1560.21 231.405 1563.21 248.867 1563.21 267.21ZM1479.45 267.21C1479.45 258.743 1478.04 250.454 1475.21 242.341C1472.74 234.228 1468.85 227.172 1463.55 221.176C1458.24 214.825 1451.71 209.711 1443.93 205.83C1436.16 201.951 1427.15 200.01 1416.9 200.01C1407 200.01 1398.17 201.951 1390.39 205.83C1382.62 209.711 1375.9 214.825 1370.25 221.176C1364.95 227.525 1360.71 234.757 1357.52 242.87C1354.7 250.983 1353.29 259.272 1353.29 267.739C1353.29 276.205 1354.7 284.495 1357.52 292.608C1360.71 300.721 1364.95 307.952 1370.25 314.302C1375.9 320.652 1382.62 325.767 1390.39 329.647C1398.17 333.527 1407 335.467 1416.9 335.467C1427.15 335.467 1436.16 333.527 1443.93 329.647C1451.71 325.767 1458.24 320.652 1463.55 314.302C1468.85 307.952 1472.74 300.721 1475.21 292.608C1478.04 284.142 1479.45 275.676 1479.45 267.21Z" fill="#E84469"/>
<path d="M1765.81 207.418C1761.93 206.36 1758.04 205.654 1754.14 205.301C1750.62 204.949 1747.08 204.772 1743.54 204.772C1731.88 204.772 1721.99 206.889 1713.86 211.123C1706.09 215.356 1699.73 220.47 1694.78 226.467C1690.18 232.463 1686.82 238.99 1684.7 246.044C1682.58 253.1 1681.52 259.272 1681.52 264.564V400.02H1594.59V136.515H1678.34V174.613H1679.41C1686.12 161.208 1695.65 150.272 1708.03 141.806C1720.4 133.34 1734.71 129.108 1750.97 129.108C1754.5 129.108 1757.85 129.284 1761.04 129.637C1764.58 129.989 1767.4 130.518 1769.52 131.224L1765.81 207.418Z" fill="#E84469"/>
<path d="M1928.48 285.2H1917.34C1907.81 285.2 1898.09 285.729 1888.19 286.787C1878.65 287.492 1869.99 289.08 1862.22 291.549C1854.79 294.019 1848.61 297.723 1843.66 302.661C1838.71 307.247 1836.25 313.42 1836.25 321.181C1836.25 326.119 1837.3 330.352 1839.42 333.88C1841.9 337.408 1844.9 340.229 1848.43 342.346C1851.97 344.462 1856.03 346.049 1860.63 347.108C1865.22 347.814 1869.64 348.166 1873.88 348.166C1891.55 348.166 1904.98 343.404 1914.17 333.88C1923.71 324.003 1928.48 310.775 1928.48 294.195V285.2ZM1768.91 172.496C1784.47 157.68 1802.49 146.568 1822.99 139.161C1843.83 131.753 1865.04 128.049 1886.6 128.049C1908.87 128.049 1927.6 130.871 1942.8 136.515C1958.35 141.806 1970.89 150.272 1980.43 161.913C1989.98 173.201 1996.86 187.663 2001.11 205.301C2005.7 222.586 2008 243.223 2008 267.21V400.02H1928.48V371.977H1926.89C1920.18 382.913 1909.93 391.378 1896.15 397.375C1882.71 403.372 1868.05 406.37 1852.14 406.37C1841.55 406.37 1830.59 404.959 1819.28 402.137C1807.97 399.315 1797.54 394.729 1788 388.38C1778.81 382.03 1771.21 373.565 1765.2 362.982C1759.2 352.399 1756.19 339.347 1756.19 323.827C1756.19 304.777 1761.31 289.433 1771.56 277.792C1782.17 266.152 1795.59 257.156 1811.85 250.806C1828.46 244.457 1846.85 240.224 1866.99 238.108C1887.14 235.991 1906.75 234.933 1925.83 234.933V230.7C1925.83 217.648 1921.24 208.124 1912.04 202.127C1902.86 195.777 1891.55 192.603 1878.13 192.603C1865.75 192.603 1853.73 195.248 1842.07 200.539C1830.76 205.83 1821.05 212.18 1812.91 219.589L1768.91 172.496Z" fill="#E84469"/>
<path d="M280.899 396.795H174.115L88.3726 271.353H86.7944V396.795H0V0H86.7944V241.436H88.3726L172.011 135.414H276.69L175.693 253.508L280.899 396.795Z" fill="#E84469"/>
<path d="M440.215 282.9H429.168C419.699 282.9 410.056 283.425 400.237 284.475C390.768 285.175 382.177 286.749 374.461 289.199C367.097 291.648 360.96 295.322 356.051 300.22C351.14 304.77 348.686 310.892 348.686 318.591C348.686 323.49 349.738 327.688 351.842 331.187C354.297 334.686 357.278 337.486 360.785 339.585C364.292 341.685 368.324 343.259 372.884 344.309C377.443 345.009 381.825 345.358 386.034 345.358C403.569 345.358 416.894 340.634 426.012 331.187C435.481 321.39 440.215 308.268 440.215 291.823V282.9ZM281.881 171.105C297.311 156.409 315.196 145.386 335.535 138.038C356.226 130.69 377.266 127.016 398.659 127.016C420.751 127.016 439.338 129.815 454.418 135.414C469.848 140.663 482.297 149.061 491.765 160.608C501.234 171.805 508.072 186.151 512.281 203.646C516.84 220.791 519.119 241.261 519.119 265.054V396.795H440.215V368.977H438.636C431.974 379.824 421.804 388.223 408.128 394.171C394.801 400.119 380.248 403.094 364.467 403.094C353.947 403.094 343.076 401.694 331.853 398.895C320.632 396.095 310.286 391.547 300.818 385.248C291.7 378.949 284.16 370.552 278.199 360.054C272.237 349.557 269.256 336.61 269.256 321.215C269.256 302.32 274.34 287.099 284.511 275.552C295.031 264.005 308.357 255.082 324.489 248.784C340.971 242.486 359.206 238.287 379.196 236.187C399.185 234.087 418.648 233.038 437.585 233.038V228.839C437.585 215.892 433.026 206.446 423.908 200.496C414.79 194.199 403.569 191.049 390.242 191.049C377.968 191.049 366.045 193.673 354.472 198.923C343.251 204.171 333.607 210.47 325.541 217.818L281.881 171.105Z" fill="#E84469"/>
<path d="M758.15 396.795V362.679H757.098C748.682 375.976 736.584 386.297 720.802 393.646C705.372 400.644 688.89 404.143 671.355 404.143C651.718 404.143 634.183 400.294 618.753 392.596C603.323 384.898 590.173 374.751 579.301 362.154C568.781 349.208 560.715 334.337 555.104 317.541C549.493 300.745 546.688 283.249 546.688 265.054C546.688 246.86 549.493 229.539 555.104 213.094C561.065 196.298 569.306 181.601 579.827 169.005C590.698 156.409 603.674 146.437 618.753 139.089C634.183 131.74 651.366 128.066 670.303 128.066C689.592 128.066 705.899 131.74 719.224 139.089C732.55 146.437 742.896 154.484 750.26 163.232H751.312V0H837.58V396.795H758.15ZM754.994 265.58C754.994 257.182 753.416 248.959 750.26 240.911C747.455 232.863 743.246 225.69 737.635 219.392C732.375 213.094 725.888 208.02 718.172 204.171C710.457 200.322 701.69 198.397 691.871 198.397C681.701 198.397 672.759 200.322 665.043 204.171C657.328 208.02 650.841 213.094 645.581 219.392C640.32 225.34 636.288 232.338 633.481 240.386C631.027 248.434 629.799 256.657 629.799 265.054C629.799 273.453 631.027 281.851 633.481 290.248C636.288 298.296 640.32 305.469 645.581 311.767C650.841 318.066 657.328 323.139 665.043 326.989C672.759 330.837 681.701 332.762 691.871 332.762C701.69 332.762 710.457 330.837 718.172 326.989C725.888 323.139 732.375 318.066 737.635 311.767C743.246 305.469 747.455 298.296 750.26 290.248C753.416 282.2 754.994 273.977 754.994 265.58Z" fill="#E84469"/>
<path d="M1217.7 229.458L1120.18 178.138L1110.63 80.804C1109.93 73.6774 1101.56 70.3183 1096.12 74.8606L1017.93 140.148L908.602 118.845C901.482 117.458 895.775 124.756 898.888 131.344L945.678 230.371L893.354 326.847C889.891 333.233 895.155 340.875 902.379 339.863L1012.76 324.397L1087.14 393.454C1092.37 398.314 1100.84 395.304 1101.94 388.316L1116.98 291.591L1217.27 245.366C1223.9 242.309 1224.24 232.907 1217.7 229.458ZM1091.57 202.275L1155.4 235.797L1089.74 265.991C1087.04 267.233 1085.14 269.747 1084.68 272.69L1075 335.039L1027.35 290.721C1025.39 288.899 1022.71 288.063 1020.08 288.432L948.215 298.502L982.455 235.37C983.801 232.889 983.889 229.91 982.679 227.348L952.036 162.497L1023.29 176.274C1025.91 176.781 1028.61 176.08 1030.65 174.377L1080.73 132.592L1086.87 195.285C1087.16 198.254 1088.93 200.884 1091.57 202.275Z" fill="#241E3C" stroke="#241E3C" stroke-width="16"/>
<path d="M1041.24 321.449L991.547 304.001L960.439 389.813L1010.13 407.261L1041.24 321.449Z" fill="#241E3C"/>
<path d="M996.885 95.2857C1010.49 95.2857 1021.52 84.2527 1021.52 70.6429C1021.52 57.033 1010.49 46 996.885 46C983.279 46 972.25 57.033 972.25 70.6429C972.25 84.2527 983.279 95.2857 996.885 95.2857Z" fill="#241E3C"/>
<path d="M1166.59 176.333C1174.75 176.333 1181.37 169.714 1181.37 161.548C1181.37 153.382 1174.75 146.762 1166.59 146.762C1158.43 146.762 1151.81 153.382 1151.81 161.548C1151.81 169.714 1158.43 176.333 1166.59 176.333Z" fill="#241E3C"/>
<path d="M1055.46 60.2381C1059.69 60.2381 1063.12 56.8056 1063.12 52.5714C1063.12 48.3373 1059.69 44.9048 1055.46 44.9048C1051.23 44.9048 1047.79 48.3373 1047.79 52.5714C1047.79 56.8056 1051.23 60.2381 1055.46 60.2381Z" fill="#241E3C"/>
</svg>
